<svg width="300" height="237" viewBox="0 0 300 237" fill="none" xmlns="http://www.w3.org/2000/svg">
<path d="M145.678 237C183.07 237 213.383 206.766 213.383 169.47C213.383 132.174 183.07 101.94 145.678 101.94C108.285 101.94 77.9727 132.174 77.9727 169.47C77.9727 206.766 108.285 237 145.678 237Z" fill="#407BFF"/>
<path d="M179.014 140.967C179.868 141.664 167.222 158.637 150.774 178.86L140.791 190.932L139.421 192.582L137.972 191.086C125.042 177.854 116.326 168.052 116.947 167.433C117.568 166.814 127.421 175.558 140.662 188.378L137.869 188.662L147.645 176.461C164.092 156.109 178.135 140.271 179.014 140.967Z" fill="white"/>
<path d="M241.853 142.23C239.836 135.136 230.604 135.833 230.604 135.833L230.836 140.76C236.19 139.831 239.5 146.074 239.5 146.074L241.853 142.23Z" fill="#407BFF"/>
<path d="M45.7243 157.142C43.7329 150.048 34.4746 150.719 34.4746 150.719L34.7332 155.672C40.0865 154.743 43.3968 160.986 43.3968 160.986L45.7243 157.142Z" fill="#54ADDD" fill-opacity="0.62"/>
<path d="M153.748 58.9939C164.481 62.2442 171.153 49.9138 171.153 49.9138L164.636 46.1992C161.429 53.7574 150.723 52.8803 150.723 52.8803L153.748 58.9939Z" fill="#54ADDD" fill-opacity="0.62"/>
<path d="M94.2404 72.2747C89.2491 72.8164 88.6543 79.0589 88.6543 79.0589L91.9904 79.4459C91.9904 75.7829 96.5679 74.2867 96.5679 74.2867L94.2404 72.2747Z" fill="#407BFF"/>
<path d="M299.939 117.984C300.663 113.032 294.766 110.891 294.766 110.891L293.551 114.012C297.12 114.915 297.456 119.713 297.456 119.713L299.939 117.984Z" fill="#54ADDD" fill-opacity="0.62"/>
<path d="M123.36 7.09385C124.085 2.14105 118.188 0 118.188 0L116.973 3.14709C120.542 4.04995 120.878 8.82217 120.878 8.82217L123.36 7.09385Z" fill="#407BFF"/>
<path d="M0.0532906 86.9783C-0.825994 94.717 9.46681 96.6259 9.46681 96.6259L11.3288 91.4668C5.14797 90.8993 4.26866 83.728 4.26866 83.728L0.0532906 86.9783Z" fill="#407BFF"/>
<path d="M229.6 58.8385C234.617 59.1222 236.221 53.0602 236.221 53.0602L232.988 52.1316C232.393 55.743 227.635 56.4911 227.635 56.4911L229.6 58.8385Z" fill="#407BFF"/>
<path d="M256.983 79.215C255.638 79.5911 254.236 79.7222 252.845 79.6019C251.453 79.725 250.051 79.5939 248.707 79.215C251.438 78.6647 254.252 78.6647 256.983 79.215Z" fill="#54ADDD" fill-opacity="0.62"/>
<path d="M261.381 67.9956C261.898 70.7577 261.898 73.5914 261.381 76.3535C260.829 73.5947 260.829 70.7544 261.381 67.9956Z" fill="#54ADDD" fill-opacity="0.62"/>
<path d="M266.037 78.931C267.382 78.5549 268.784 78.4238 270.175 78.5441C271.566 78.4209 272.969 78.5521 274.313 78.931C271.582 79.4814 268.768 79.4814 266.037 78.931Z" fill="#54ADDD" fill-opacity="0.62"/>
<path d="M261.67 90.1783C261.118 87.4109 261.118 84.5621 261.67 81.7947C262.187 84.5654 262.187 87.4076 261.67 90.1783Z" fill="#54ADDD" fill-opacity="0.62"/>
<path d="M268.338 85.4829C268.183 85.6119 267.381 84.9412 266.554 83.9867C265.726 83.0323 265.235 82.1036 265.39 81.9746C265.545 81.8457 266.373 82.4906 267.174 83.4708C267.976 84.451 268.519 85.1991 268.338 85.4829Z" fill="#54ADDD" fill-opacity="0.62"/>
<path d="M267.951 72.5845C268.106 72.765 267.563 73.5647 266.71 74.416C265.856 75.2673 265.055 75.8347 264.899 75.68C264.744 75.5252 265.287 74.6997 266.141 73.8485C266.994 72.9972 267.796 72.5845 267.951 72.5845Z" fill="#54ADDD" fill-opacity="0.62"/>
<path d="M258.483 75.862C258.328 76.0426 257.552 75.6299 256.75 74.9592C255.949 74.2885 255.431 73.6178 255.561 73.463C255.69 73.3082 256.466 73.6952 257.268 74.34C258.069 74.9849 258.612 75.7073 258.483 75.862Z" fill="#54ADDD" fill-opacity="0.62"/>
<path d="M258.098 81.4859C258.279 81.6149 257.787 82.4146 257.011 83.2658C256.236 84.1171 255.486 84.6588 255.331 84.504C255.175 84.3493 255.641 83.5496 256.417 82.7241C257.192 81.8986 257.942 81.3312 258.098 81.4859Z" fill="#54ADDD" fill-opacity="0.62"/>
<path d="M31.6819 56.2074C28.9509 56.7577 26.1372 56.7577 23.4062 56.2074C24.751 55.8312 26.1527 55.7002 27.544 55.8205C28.9354 55.6973 30.3377 55.8284 31.6819 56.2074Z" fill="#407BFF"/>
<path d="M36.0779 44.9866C36.6298 47.754 36.6298 50.6028 36.0779 53.3702C35.5261 50.6028 35.5261 47.754 36.0779 44.9866Z" fill="#407BFF"/>
<path d="M40.7578 55.9496C43.4888 55.3993 46.3025 55.3993 49.0334 55.9496C46.3025 56.4999 43.4888 56.4999 40.7578 55.9496Z" fill="#407BFF"/>
<path d="M36.3631 67.1696C35.8113 64.4108 35.8113 61.5705 36.3631 58.8118C36.9149 61.5705 36.9149 64.4108 36.3631 67.1696Z" fill="#407BFF"/>
<path d="M43.0632 62.2686C42.8821 62.4234 42.0804 61.7527 41.2787 60.7724C40.477 59.7922 39.934 58.9151 40.115 58.7603C40.296 58.6056 41.0719 59.3021 41.8994 60.2565C42.727 61.211 43.2183 62.2686 43.0632 62.2686Z" fill="#407BFF"/>
<path d="M42.6738 49.6294C42.8289 49.7842 42.26 50.6096 41.4324 51.4609C40.6049 52.3122 39.7773 52.8539 39.6221 52.6991C39.467 52.5443 40.0101 51.7447 40.8635 50.8934C41.7169 50.0421 42.5186 49.3715 42.6738 49.6294Z" fill="#407BFF"/>
<path d="M33.1828 52.8804C33.0535 53.0352 32.2776 52.6482 31.4759 51.9775C30.6742 51.3068 30.1311 50.6361 30.2863 50.4556C30.4414 50.275 31.1914 50.6877 31.9931 51.3584C32.7948 52.0291 33.3379 52.6998 33.1828 52.8804Z" fill="#407BFF"/>
<path d="M32.8176 58.476C32.9728 58.6308 32.4814 59.4305 31.7314 60.2817C30.9814 61.133 30.2056 61.6747 30.0246 61.52C29.8435 61.3652 30.3608 60.5655 31.1107 59.74C31.8607 58.9146 32.6366 58.3213 32.8176 58.476Z" fill="#407BFF"/>
</svg>
